<svg xmlns="http://www.w3.org/2000/svg" width="512" height="512" viewBox="0 0 512 512" version="1.1">
	<path d="M 232.500 50.564 C 207.580 53.949, 187.587 59.905, 167.671 69.879 L 154.391 76.529 145.446 74.193 C 133.332 71.031, 122.803 70.812, 117.500 73.613 C 115.300 74.775, 109.544 77.812, 104.709 80.363 L 95.918 85 79.006 85 C 60.676 85, 57.816 85.615, 56.024 89.943 C 55.089 92.200, 55.412 93.965, 58.060 101.063 C 61.151 109.346, 61.192 109.692, 60.354 120 C 58.916 137.676, 59.507 154.428, 61.889 163.500 C 69.180 191.281, 87.094 208, 109.568 208 C 113.691 208, 113.998 208.175, 113.519 210.250 C 111.619 218.492, 110.008 233.068, 110.011 242 C 110.016 258.907, 114.629 273.881, 125.176 291.226 L 128.658 296.952 126.923 303.785 C 121.371 325.644, 120.701 345.744, 124.949 363 C 127.616 373.836, 135.256 389.254, 143.036 399.500 C 152.602 412.098, 152.271 410.934, 150.473 425.726 C 147.478 450.358, 147.518 448.473, 149.943 450.733 C 152.598 453.206, 159.063 455.049, 177.500 458.590 L 191.500 461.278 202.727 458.546 C 216.314 455.239, 222.370 452.419, 222.828 449.186 C 223.008 447.913, 222.221 443.793, 221.078 440.031 C 216.976 426.525, 218.187 424.958, 230.764 427.493 C 245.103 430.384, 255.554 430.508, 273.759 428.005 C 294.260 425.186, 295.569 425.841, 290.955 436.605 C 289.831 439.228, 288.659 443.208, 288.352 445.449 C 287.449 452.034, 289.469 453.595, 304.025 457.564 C 310.886 459.436, 317.663 460.974, 319.085 460.983 C 323.531 461.012, 351.617 455.249, 354.633 453.690 C 361.264 450.261, 361.392 449.780, 360.573 431.248 C 360.166 422.037, 359.846 413.672, 359.861 412.660 C 359.877 411.648, 361.508 408.948, 363.485 406.660 C 377.800 390.101, 387.257 373.343, 390.664 358.500 C 393.526 346.030, 393.064 325.478, 389.634 312.753 C 388.190 307.391, 386.411 301.544, 385.683 299.757 C 384.414 296.648, 384.543 296.222, 388.716 289.772 C 393.979 281.637, 398.471 271.344, 400.483 262.811 C 402.685 253.469, 402.456 233.420, 400.003 220.785 C 398.905 215.128, 398.005 209.995, 398.003 209.378 C 398.001 208.684, 400.958 208.086, 405.764 207.808 C 429.632 206.426, 448.640 182.561, 451.808 150 C 452.571 142.149, 452.385 137.805, 450.462 118.500 C 449.814 111.998, 450.019 110.840, 453.350 102.232 C 459.341 86.749, 457.157 84.884, 433.247 85.064 C 415.016 85.202, 413.249 84.758, 400.176 76.749 C 391.874 71.664, 391.386 71.503, 384.553 71.610 C 380.557 71.672, 373.192 72.839, 367.560 74.302 L 357.621 76.883 343.560 69.972 C 327.194 61.928, 312.659 56.943, 295.646 53.539 C 272.167 48.841, 252.134 47.898, 232.500 50.564 M 240.500 62.026 C 214.733 63.873, 191.063 70.320, 168.999 81.501 L 163.945 84.061 166.422 87.309 C 172.944 95.860, 174.726 106.981, 171.500 119 C 170.688 122.025, 170.017 124.725, 170.010 125 C 170.002 125.275, 175.059 125.355, 181.248 125.178 C 202.020 124.584, 221.032 127.948, 237.785 135.181 C 246.449 138.921, 248.366 139.379, 255.500 139.417 C 262.747 139.455, 264.583 139.022, 275 134.822 C 293.080 127.533, 304.016 125.498, 325.049 125.510 L 342.598 125.519 340.799 119.031 C 337.460 106.989, 338.858 95.808, 344.653 88.210 C 347.748 84.152, 348.221 84.637, 335.143 78.446 C 307.633 65.423, 274.153 59.614, 240.500 62.026 M 123.500 82.708 C 122.400 82.969, 118.094 84.705, 113.931 86.566 C 107.264 89.546, 102.202 91.110, 91.632 93.460 C 90.055 93.810, 88.961 94.295, 89.202 94.536 C 89.443 94.777, 93.998 96.079, 99.324 97.430 C 104.650 98.781, 111.806 101.375, 115.227 103.193 C 122.812 107.226, 132.647 116.245, 138.682 124.703 C 143.556 131.534, 145.545 132.321, 150.915 129.544 C 156.138 126.843, 159.647 115.257, 158.692 103.867 C 157.690 91.916, 153.517 87.585, 139.567 84.017 C 131.930 82.064, 127.668 81.717, 123.500 82.708 M 372.189 84.025 C 363.082 86.411, 357.243 89.630, 355.337 93.314 C 351.595 100.552, 352.990 121.458, 357.580 126.912 C 359.923 129.697, 366.933 132.352, 368.686 131.119 C 369.170 130.779, 371.059 128.139, 372.885 125.254 C 377.815 117.460, 389.927 106.636, 398.341 102.503 C 402.278 100.568, 409.476 98.125, 414.337 97.073 C 419.197 96.021, 423.389 94.945, 423.652 94.681 C 423.915 94.418, 421.041 93.682, 417.265 93.045 C 413.489 92.408, 406.597 90.298, 401.950 88.357 C 388.038 82.546, 386.648 82.087, 383 82.099 C 381.075 82.105, 376.210 82.972, 372.189 84.025 M 86 116.324 C 86 117.052, 87.179 121.439, 88.619 126.074 C 90.723 132.842, 91.362 137.391, 91.869 149.188 C 92.492 163.684, 92.538 163.915, 95.420 166.920 C 99.454 171.126, 105.807 173.407, 111.208 172.591 C 119.014 171.410, 118.684 173.003, 115.419 152.241 C 114.979 149.443, 114.062 148.555, 108.953 145.976 C 101.964 142.448, 101.057 141.238, 107.458 143.982 C 114.444 146.976, 115.011 146.905, 116.421 142.860 L 117.689 139.219 111.597 136.360 C 107.222 134.306, 102.885 130.892, 96.214 124.250 C 91.104 119.162, 86.715 115, 86.462 115 C 86.208 115, 86 115.596, 86 116.324 M 415.970 124.286 C 410.090 129.972, 404.240 134.604, 400.695 136.382 C 396.152 138.661, 395.059 139.655, 395.475 141.132 C 395.764 142.159, 396.255 143.900, 396.567 144.999 C 397.011 146.565, 397.522 146.791, 398.921 146.042 C 399.904 145.516, 403.097 144.144, 406.018 142.993 C 413.316 140.116, 410.898 142.875, 403.023 146.409 C 397.632 148.828, 397.014 149.425, 396.410 152.789 C 396.044 154.830, 395.159 159.643, 394.443 163.485 C 393.003 171.223, 393.286 171.829, 398.500 172.160 C 404.458 172.538, 409.509 171.781, 413.037 169.981 C 419.308 166.782, 419.494 166.210, 419.499 150.100 C 419.504 135.566, 419.521 135.458, 423.252 126.150 C 428.950 111.934, 428.788 111.892, 415.970 124.286 M 199 146.510 C 212.275 150.251, 216.384 154.038, 220.058 165.913 C 224.304 179.639, 223.658 192.924, 218.207 204 L 215.500 209.500 196.500 209.500 C 179.029 209.500, 177.074 209.681, 172.213 211.750 C 169.305 212.988, 166.688 214, 166.398 214 C 166.108 214, 164.065 210.147, 161.858 205.438 C 156.525 194.058, 154.506 184.142, 155.822 175.794 C 157.955 162.261, 164.021 151.320, 171.312 147.858 L 175.500 145.869 170.127 146.485 C 158.289 147.843, 149.612 153.012, 145.235 161.312 C 142.677 166.165, 142.500 167.307, 142.504 179 C 142.509 192.984, 144.046 200.422, 149.059 210.708 C 154.895 222.684, 165.486 228.354, 185.819 230.390 C 190.998 230.908, 191.182 230.838, 192.819 227.721 C 195.630 222.368, 200.359 218.664, 208.878 215.144 C 218.930 210.990, 221.298 209.154, 226.021 201.846 C 233.860 189.717, 235.369 171.961, 229.479 161.140 C 224.776 152.498, 213.292 146.362, 200.066 145.425 L 193.500 144.960 199 146.510 M 304.500 146.424 C 288.908 150.335, 280.335 158.410, 277.923 171.460 C 275.910 182.349, 280.797 198.981, 288.314 206.824 C 290.066 208.651, 295.833 212.378, 301.129 215.104 C 309.638 219.485, 311.189 220.710, 314.468 225.649 L 318.179 231.238 324.151 230.562 C 335.093 229.324, 345.208 226.185, 350.958 222.242 C 362.519 214.316, 366.954 204.299, 367.751 184.319 C 368.568 163.831, 364.398 154.808, 351.469 149.089 C 348.871 147.940, 345.640 147, 344.289 147 L 341.832 147 344.923 150.903 C 346.623 153.049, 349.452 157.879, 351.210 161.636 C 355.601 171.019, 356.258 182.499, 353.015 193.179 C 350.350 201.954, 345.467 213, 344.253 213 C 343.773 213, 339.583 212.037, 334.940 210.860 C 327.426 208.954, 324.824 208.788, 311.226 209.344 L 295.951 209.968 293.979 206.734 C 284.897 191.844, 286.094 165.431, 296.363 154.153 C 299.100 151.147, 304.601 148.336, 311.251 146.545 C 315.980 145.272, 316.153 145.134, 313 145.151 C 311.075 145.161, 307.250 145.734, 304.500 146.424 M 171.881 162.007 C 170.991 162.527, 169.699 164.313, 169.010 165.976 C 166.379 172.328, 172.156 178.522, 177.927 175.538 C 181.091 173.901, 182 172.201, 182 167.918 C 182 162.653, 176.387 159.374, 171.881 162.007 M 332.174 163.314 C 327.716 168.060, 331.080 176, 337.550 176 C 344.103 176, 345.873 167.405, 340.234 162.969 C 336.957 160.392, 334.834 160.483, 332.174 163.314 M 113.466 174.374 C 106.293 177.700, 100.217 178.413, 94.884 176.556 C 89.670 174.740, 89 174.679, 89 176.022 C 89 177.615, 97.081 185.991, 100.148 187.577 C 105.359 190.271, 121.081 188.923, 122.273 185.680 C 122.512 185.031, 121.761 181.696, 120.604 178.270 L 118.500 172.040 113.466 174.374 M 392.645 172.809 C 391.381 174.991, 389.028 185.237, 389.584 186.136 C 390.721 187.975, 396.757 190, 401.102 190 C 407.710 190, 413.093 187.877, 417.715 183.449 C 423.291 178.105, 423.493 175.749, 418.250 177.197 C 412.735 178.720, 403.544 177.566, 397.912 174.644 C 395.235 173.255, 392.865 172.430, 392.645 172.809 M 251.500 181.386 C 249.850 182.106, 247.935 183.775, 247.245 185.097 C 245.907 187.659, 239.843 205.291, 240.255 205.422 C 240.390 205.465, 247.335 205.365, 255.689 205.201 L 270.878 204.901 267.411 195.201 C 265.035 188.551, 263.005 184.635, 260.957 182.750 C 257.644 179.702, 255.931 179.454, 251.500 181.386 M 126.572 203.884 C 125.768 205.185, 122.260 224.140, 120.938 234.326 C 115.447 276.623, 151.808 317.724, 206.901 331.496 C 238.015 339.274, 265.495 339.235, 303.313 331.359 C 330.847 325.625, 351.855 314.531, 368.565 296.899 C 386.333 278.150, 393.690 258.027, 391.002 235.521 C 389.677 224.416, 385.436 205.036, 384.023 203.623 C 382.336 201.936, 378.502 206.558, 374.171 215.500 C 367.767 228.723, 361.407 234.559, 348.601 238.965 C 344.224 240.471, 327.778 242.981, 322.144 243.002 C 321.790 243.004, 321.460 245.852, 321.412 249.331 C 321.136 269.192, 305.926 283.850, 278.500 290.684 C 273.192 292.007, 267.390 292.423, 254.500 292.406 C 239.313 292.385, 236.460 292.102, 227.746 289.748 C 215.282 286.381, 206.931 281.956, 199.945 275.018 C 192.079 267.205, 189.596 261.620, 189.156 250.750 L 188.801 242 182.651 241.992 C 159.705 241.964, 147.063 234.908, 137.603 216.848 C 131.412 205.029, 128.198 201.252, 126.572 203.884 M 237.500 217.695 C 231.165 218.531, 218.602 222.168, 214.005 224.497 C 197.989 232.613, 195.214 255.200, 208.770 267.103 C 222.501 279.159, 254.475 283.855, 279.204 277.447 C 304.109 270.994, 315.481 253.767, 306.693 235.805 C 301.660 225.518, 293.953 221.150, 276.078 218.456 C 267.398 217.147, 245.002 216.706, 237.500 217.695 M 224.145 230.070 C 213.730 234.241, 208.829 246.616, 213.868 256.016 C 216.470 260.870, 223.513 264.427, 228.765 263.540 C 237.845 262.006, 243.004 256, 242.974 247 C 242.931 233.822, 234.255 226.021, 224.145 230.070 M 276 229.651 C 272.462 231.063, 268.839 235.745, 267.368 240.807 C 264.703 249.972, 267.398 257.562, 274.544 261.021 C 279.613 263.475, 283.314 263.495, 288.599 261.095 C 296.879 257.334, 300.030 248.149, 295.814 240.058 C 292.638 233.962, 287.252 229.863, 281.825 229.412 C 279.446 229.214, 276.825 229.322, 276 229.651 M 225 240 C 222.555 242.445, 222.269 249.148, 224.530 251.025 C 225.699 251.995, 226.641 252.029, 228.530 251.168 C 230.660 250.198, 231 249.378, 231 245.221 C 231 238.335, 228.682 236.318, 225 240 M 278.607 240.582 C 277.773 242.754, 277.871 248.266, 278.765 249.573 C 281.224 253.164, 287 250.774, 287 246.166 C 287 244.669, 286.299 242.445, 285.443 241.223 C 283.644 238.653, 279.496 238.264, 278.607 240.582 M 368.500 312.642 C 355.240 324.911, 328.686 340.227, 311.248 345.664 C 304.690 347.709, 303.049 348.594, 303.436 349.876 C 304.724 354.139, 305.883 361.247, 306.514 368.750 C 307.103 375.754, 307.479 377, 308.999 377 C 310.529 377, 320.736 370.259, 328.903 363.856 C 330.224 362.820, 331.528 362.195, 331.801 362.467 C 332.073 362.740, 329.513 369.459, 326.111 377.400 C 322.709 385.340, 318.786 396.261, 317.392 401.668 C 314.955 411.128, 312.946 431, 314.427 431 C 315.557 431, 335.421 416.249, 345.106 408.217 C 369.865 387.685, 381.171 366.045, 381.269 339 C 381.292 332.675, 380.780 325.250, 380.132 322.500 C 378.296 314.717, 375.789 306.995, 375.113 307.045 C 374.776 307.070, 371.800 309.588, 368.500 312.642 M 136.037 319.750 C 128.267 360.434, 139.913 388.128, 177.180 417.587 C 181.206 420.770, 186.609 425.092, 189.187 427.193 C 192.385 429.799, 194.104 430.641, 194.598 429.842 C 196.107 427.400, 196.153 414.363, 194.677 407.404 C 193.235 400.605, 188.280 387.582, 180.651 370.539 C 178.691 366.161, 177.238 362.429, 177.421 362.245 C 177.605 362.062, 181.298 364.454, 185.628 367.561 C 192.421 372.437, 200.008 377, 201.322 377 C 201.543 377, 202.034 373.512, 202.413 369.250 C 202.791 364.988, 203.753 358.660, 204.551 355.188 C 205.348 351.716, 206 348.491, 206 348.019 C 206 347.548, 202.963 346.169, 199.250 344.953 C 182.812 339.572, 157.320 324.745, 145.178 313.504 C 141.908 310.477, 139.019 308, 138.757 308 C 138.495 308, 137.271 313.288, 136.037 319.750 M 211.550 350.731 C 210.366 353.815, 211.069 373.412, 212.610 380.303 C 214.664 389.487, 220.113 399.966, 225.246 404.603 C 227.450 406.594, 232.234 409.636, 235.877 411.362 C 242.156 414.337, 243.123 414.500, 254.500 414.500 C 265.547 414.500, 266.977 414.278, 272.500 411.700 C 289.147 403.933, 299.073 384.067, 297.712 361.243 C 297.402 356.058, 296.897 351.563, 296.588 351.255 C 296.279 350.946, 290.283 351.698, 283.263 352.926 C 276.244 354.154, 266.675 355.406, 262 355.709 C 252.626 356.316, 232.262 354.102, 219.704 351.110 C 213.203 349.562, 212.020 349.507, 211.550 350.731" stroke="none" fill="black" fill-rule="evenodd"/>
</svg>